<svg width="40" height="40" viewBox="0 0 1024 1024" fill="none" xmlns="http://www.w3.org/2000/svg">
  <defs>
    <linearGradient id="bgGradient" x1="0%" y1="0%" x2="100%" y2="100%">
      <stop offset="0%" style="stop-color:#8B5CF6;stop-opacity:1" />
      <stop offset="50%" style="stop-color:#6366F1;stop-opacity:1" />
      <stop offset="100%" style="stop-color:#3B82F6;stop-opacity:1" />
    </linearGradient>
  </defs>
  
  <!-- Background rounded square -->
  <rect width="1024" height="1024" rx="200" fill="url(#bgGradient)"/>
  
  <!-- QAI letters in white -->
  <g fill="white">
    <!-- Q -->
    <path d="M 200 300 Q 200 200, 350 200 Q 500 200, 500 350 Q 500 450, 420 500 L 520 600 L 450 650 L 350 550 Q 200 500, 200 350 Z M 280 350 Q 280 280, 350 280 Q 420 280, 420 350 Q 420 420, 350 420 Q 280 420, 280 350 Z"/>
    
    <!-- A -->
    <path d="M 480 800 L 550 400 L 650 400 L 720 800 L 640 800 L 625 700 L 575 700 L 560 800 Z M 585 630 L 615 630 L 600 500 Z"/>
    
    <!-- I -->
    <path d="M 780 400 L 880 400 L 880 800 L 780 800 Z"/>
  </g>
</svg>
